<?xml version="1.0" encoding="UTF-8"?>
<svg width="175px" height="164px" viewBox="0 0 175 164" version="1.1" xmlns="http://www.w3.org/2000/svg" xmlns:xlink="http://www.w3.org/1999/xlink">
    <!-- Generator: Sketch 49 (51002) - http://www.bohemiancoding.com/sketch -->
    <title>Logo</title>
    <desc>Created with Sketch.</desc>
    <defs>
        <rect id="path-1" x="0" y="0" width="175" height="163.902439"></rect>
    </defs>
    <g id="Page-1" stroke="none" stroke-width="1" fill="none" fill-rule="evenodd">
        <g id="Logo" transform="translate(-22.000000, -188.000000)">
            <g transform="translate(22.000000, 188.000000)">
                <g id="Group"></g>
                <g id="Rectangle">
                    <use fill="#111111" fill-rule="evenodd" xlink:href="#path-1"></use>
                    <rect stroke="#0E0E0E" stroke-width="1" x="0.5" y="0.5" width="174" height="162.902439"></rect>
                </g>
                <path d="M43.3398438,154.478492 C52.2924805,154.478492 59.1113281,148.355445 59.1113281,140.423316 L59.1113281,134.578589 L44.3139648,135.645484 C35.8251953,136.248511 31.7431641,139.402808 31.7431641,145.108375 C31.7431641,150.860328 36.6137695,154.478492 43.3398438,154.478492 Z M42.3193359,159.859351 C32.5317383,159.859351 25.480957,154.153785 25.480957,145.201148 C25.480957,136.480445 31.9287109,131.424293 43.4790039,130.635718 L59.1113281,129.615211 L59.1113281,124.790992 C59.1113281,117.647437 54.7973633,113.658179 46.6796875,113.658179 C39.8144531,113.658179 34.8510742,116.580543 33.6450195,121.404761 L27.4755859,121.404761 C28.6352539,113.472632 36.3818359,108.230933 46.8652344,108.230933 C58.6010742,108.230933 65.234375,114.35398 65.234375,124.744605 L65.234375,159.02439 L59.3896484,159.02439 L59.3896484,150.442847 L58.8330078,150.442847 C55.7714844,156.380347 49.6484375,159.859351 42.3193359,159.859351 Z M145.854492,159.02439 L139.916992,159.02439 L139.916992,104.427222 L139.453125,104.427222 L116.352539,158.699683 L110.83252,158.699683 L87.7319336,104.427222 L87.3144531,104.427222 L87.3144531,159.02439 L81.3305664,159.02439 L81.3305664,92.0883551 L88.6132812,92.0883551 L113.337402,150.350074 L113.894043,150.350074 L138.525391,92.0883551 L145.854492,92.0883551 L145.854492,159.02439 Z" id="aM" fill="#FFFFFF" opacity="0.949999988"></path>
            </g>
        </g>
    </g>
</svg>